<svg width="486" height="603" viewBox="0 0 486 603" fill="none" xmlns="http://www.w3.org/2000/svg">
<path fill-rule="evenodd" clip-rule="evenodd" d="M0.0626406 1.12476C77.3956 1.12476 154.73 1.12476 232.063 1.12476C232.063 53.4578 232.063 105.792 232.063 158.125C155.094 231.592 77.9276 304.925 0.562641 378.125C0.0626406 252.459 -0.104359 126.792 0.0626406 1.12476Z" fill="#1A3A5C"/>
<path fill-rule="evenodd" clip-rule="evenodd" d="M310.063 1.12476C368.063 1.12476 426.063 1.12476 484.063 1.12476C484.063 40.7918 484.063 80.4578 484.063 120.125C381.152 217.866 278.318 315.866 175.563 414.125C175.063 476.791 174.896 539.457 175.063 602.125C116.73 602.125 58.3956 602.125 0.0626406 602.125C-0.104359 561.79 0.0626406 521.457 0.562641 481.125C103.219 383.637 206.052 286.303 309.063 189.125C310.063 126.462 310.396 63.7948 310.063 1.12476Z" fill="#1A3A5C"/>
<path fill-rule="evenodd" clip-rule="evenodd" d="M310.063 1.12479C368.227 0.125786 426.561 -0.207214 485.063 0.124786C485.393 40.2948 485.063 80.2948 484.063 120.125C484.063 80.4578 484.063 40.7918 484.063 1.12479C426.063 1.12479 368.063 1.12479 310.063 1.12479Z" fill="#1A3A5C"/>
<path fill-rule="evenodd" clip-rule="evenodd" d="M0.0626221 1.12472C77.5606 0.125719 155.228 -0.208281 233.063 0.124719C233.395 52.9607 233.062 105.628 232.063 158.125C232.063 105.792 232.063 53.4577 232.063 1.12472C154.73 1.12472 77.3956 1.12472 0.0626221 1.12472Z" fill="#1A3A5C"/>
<path fill-rule="evenodd" clip-rule="evenodd" d="M483.063 225.125C484.063 350.291 484.393 475.624 484.063 601.125C407.063 601.125 330.063 601.125 253.063 601.125C253.063 548.792 253.063 496.458 253.063 444.125C329.65 371.208 406.317 298.208 483.063 225.125Z" fill="#1A3A5C"/>
<path fill-rule="evenodd" clip-rule="evenodd" d="M483.062 225.125C483.122 224.582 483.452 224.249 484.062 224.125C485.062 349.79 485.393 475.457 485.062 601.125C484.732 601.125 484.393 601.125 484.062 601.125C484.393 475.624 484.062 350.291 483.062 225.125Z" fill="#1A3A5C"/>
<path fill-rule="evenodd" clip-rule="evenodd" d="M253.063 444.125C253.063 496.458 253.063 548.792 253.063 601.125C330.063 601.125 407.063 601.125 484.063 601.125C484.393 601.125 484.733 601.125 485.063 601.125C407.565 602.124 329.898 602.458 252.063 602.125C251.731 549.289 252.064 496.622 253.063 444.125Z" fill="#1A3A5C"/>
</svg>
