<?xml version="1.0" encoding="UTF-8"?>
<svg id="Layer_1" data-name="Layer 1" xmlns="http://www.w3.org/2000/svg" viewBox="0 0 102.62 18">
  <defs>
    <style>
      .cls-1 {
        fill: #f8f7f5;
      }
    </style>
  </defs>
  <g id="Layer_2" data-name="Layer 2">
    <g id="Layer_1-2" data-name="Layer 1-2">
      <path class="cls-1" d="m10.72,1.82c.67.46,1.48.67,2.29.61,1-.01,1.95-.4,2.68-1.08h0c.6-.77,1.49-1.25,2.46-1.35,1.62.03,2.91,1.36,2.9,2.98.02,1.62-1.28,2.95-2.9,2.98-.57,0-1.12-.17-1.59-.48-.21-.15-.41-.32-.58-.51-.35-.47-.81-.85-1.34-1.11-.53-.23-1.1-.35-1.67-.35-.76,0-1.51.21-2.16.62-.31.22-.59.47-.83.76-.18.21-.38.4-.61.57-.45.31-.99.49-1.54.5-1.62-.03-2.91-1.36-2.9-2.98-.02-1.62,1.28-2.95,2.9-2.98.95.11,1.82.6,2.41,1.36,0,0,.32.36.43.46"/>
      <path class="cls-1" d="m10.66,13.81c.67.46,1.48.67,2.3.61,1.02,0,2-.39,2.75-1.08h0c.6-.76,1.49-1.25,2.45-1.35,1.66.09,2.93,1.52,2.84,3.18-.09,1.53-1.31,2.75-2.84,2.84-.57,0-1.12-.18-1.59-.49-.22-.15-.41-.32-.59-.51-.36-.46-.82-.84-1.35-1.1-.53-.23-1.1-.35-1.68-.35-.77,0-1.52.21-2.17.62-.32.22-.6.48-.85.77-.17.21-.38.41-.6.57-.47.32-1.03.49-1.6.49-1.66-.09-2.93-1.52-2.84-3.18.09-1.53,1.31-2.75,2.84-2.84.97.1,1.87.6,2.47,1.37,0,0,.32.37.44.47"/>
      <path class="cls-1" d="m5.95,7.8c.67.47,1.48.68,2.29.62,1.02,0,2.01-.39,2.75-1.09h0c.61-.75,1.49-1.24,2.45-1.34,1.66-.02,3.02,1.3,3.04,2.96.02,1.66-1.3,3.02-2.96,3.04-.59,0-1.17-.16-1.67-.48-.22-.14-.41-.32-.58-.52-.36-.46-.83-.84-1.36-1.09-.53-.23-1.09-.36-1.67-.36-.77,0-1.53.21-2.18.63-.31.22-.59.47-.84.76-.18.21-.38.4-.6.57-.48.32-1.05.48-1.62.47-1.66,0-3-1.34-3-3s1.34-3,3-3c.99.09,1.89.59,2.5,1.37.14.16.29.32.45.46"/>
      <path class="cls-1" d="m34.02,4.14c-2.5-.05-4.56,1.94-4.61,4.44,0,.11,0,.21,0,.32-.1,2.53,1.86,4.66,4.39,4.77.12,0,.24,0,.35,0,1.4.04,2.75-.56,3.67-1.62l-.97-.97c-.69.64-1.61.99-2.55.97-1.49.11-2.81-.92-3.07-2.39h7.2c.43-3.86-2.1-5.5-4.43-5.5m-2.79,4.05c.17-1.41,1.39-2.45,2.81-2.41,1.4-.08,2.6.99,2.68,2.39l-5.49.02Z"/>
      <rect class="cls-1" x="39.72" y=".97" width="1.94" height="12.53"/>
      <path class="cls-1" d="m49.75,9.39c.17,1.21-.68,2.32-1.89,2.49-.12.02-.25.02-.37.02-1.34,0-2.24-.9-2.24-2.51v-5.08h-1.93v5.4c0,2.77,1.6,3.96,3.51,3.96,1.17.04,2.27-.54,2.9-1.53v1.38h1.93V4.31h-1.93l.02,5.08Z"/>
      <path class="cls-1" d="m57.74,5.92c1.01,0,1.94.52,2.47,1.38l1.45-.9c-.79-1.43-2.31-2.3-3.94-2.26-2.56-.1-4.72,1.89-4.82,4.45,0,.1,0,.2,0,.3-.07,2.57,1.96,4.7,4.53,4.77.1,0,.2,0,.29,0,1.63.02,3.14-.84,3.94-2.26l-1.45-.9c-.53.85-1.47,1.37-2.47,1.37-1.6,0-2.9-1.3-2.9-2.89,0-.03,0-.06,0-.09-.05-1.6,1.21-2.93,2.81-2.98.03,0,.06,0,.09,0"/>
      <rect class="cls-1" x="62.86" y="4.31" width="1.94" height="9.17"/>
      <path class="cls-1" d="m73.67,5.79h0c-.68-1.08-1.9-1.71-3.18-1.64-2.46,0-4.46,2-4.46,4.46,0,.1,0,.2.01.3-.17,2.46,1.7,4.59,4.16,4.76.1,0,.19,0,.29.01,1.28.07,2.49-.56,3.18-1.64h0v1.48h1.93V.97h-1.93v4.83Zm-2.84,6.12c-1.57.03-2.86-1.21-2.9-2.77,0-.08,0-.15,0-.23,0-1.6,1.3-2.9,2.9-2.9s2.9,1.3,2.9,2.9c.06,1.6-1.19,2.94-2.79,3-.04,0-.07,0-.11,0"/>
      <path class="cls-1" d="m84.52,5.79h0c-.68-1.08-1.9-1.71-3.18-1.64-2.46,0-4.46,2-4.46,4.46,0,.1,0,.2.01.3-.17,2.46,1.7,4.59,4.16,4.76.1,0,.19,0,.29.01,1.28.07,2.49-.56,3.18-1.64h0v1.48h1.93V4.31h-1.93v1.48Zm-2.9,6.12c-1.57.03-2.86-1.21-2.9-2.77,0-.08,0-.15,0-.23,0-1.6,1.3-2.9,2.9-2.9s2.9,1.3,2.9,2.9c.09,1.56-1.1,2.91-2.67,3-.08,0-.15,0-.23,0"/>
      <path class="cls-1" d="m90.91,1.93h-1.93v2.38h-1.3v1.57h1.27v5.38c-.13,1.16.71,2.2,1.87,2.33.17.02.34.02.5,0,.51.03,1.01-.1,1.44-.37v-1.53c-.27.1-.56.15-.85.15-.72,0-.97-.41-.97-.97v-4.99h1.81v-1.57h-1.85V1.93Z"/>
      <path class="cls-1" d="m98.14,4.14c-2.5-.05-4.56,1.94-4.61,4.44,0,.11,0,.21,0,.32-.1,2.53,1.86,4.66,4.39,4.77.12,0,.24,0,.35,0,1.4.04,2.75-.56,3.67-1.62l-.97-.97c-.69.64-1.61.99-2.55.97-1.49.11-2.81-.92-3.07-2.39h7.2c.44-3.86-2.1-5.5-4.43-5.5m-2.79,4.05c.17-1.41,1.39-2.45,2.81-2.41,1.4-.08,2.6.99,2.68,2.39l-5.49.02Z"/>
    </g>
  </g>
</svg>
